<?xml version="1.0" encoding="UTF-8" standalone="no"?>
<!-- Created with Inkscape (http://www.inkscape.org/) -->

<svg
   width="484.94595"
   height="485.16135"
   viewBox="0 0 128.30862 128.36561"
   version="1.1"
   id="svg1"
   xml:space="preserve"
   xmlns="http://www.w3.org/2000/svg"
   xmlns:svg="http://www.w3.org/2000/svg"><defs
     id="defs1" /><g
     id="layer1"
     transform="translate(-198.02176,-1.2827684)"><path
       style="fill:#ff6900;fill-opacity:1;stroke:none;stroke-width:1;stroke-dasharray:none;stroke-opacity:1"
       d="m 281.29949,33.903707 c 0,0 -31.16497,-10.58515 -46.48319,27.11519 -13.00603,32.00971 17.23751,61.783913 17.23751,61.783913 0,0 -37.41118,-15.63466 -35.05607,-64.108073 2.3149,-47.645632 33.50664,-53.2619616 33.50664,-53.2619616 0,0 29.20921,-7.70152 37.57389,17.4311816 5.74567,17.26354 -6.77878,11.03975 -6.77878,11.03975 z"
       id="path30-4" /><path
       d="m 232.55952,90.597537 c 0.11021,6.11759 1.32504,12.272103 4.00898,17.795353 2.35601,4.84838 5.89792,9.13078 10.31707,12.223 4.42908,3.09918 9.66747,4.92602 15.0071,5.61671 4.27501,0.55298 8.64949,0.47814 12.87724,-0.40245 6.51589,-1.35718 12.6226,-4.37941 17.87169,-8.43692 8.14206,-6.29376 14.32444,-15.17578 17.10084,-25.109553 2.28184,-8.16428 2.19455,-17.03683 -0.59748,-25.06516 -3.86922,-11.12574 -12.90533,-20.27981 -23.91765,-24.41711 -4.18517,-1.57237 -8.71047,-2.40306 -13.18268,-1.96167 -3.43697,0.35083 -6.83866,1.07988 -10.10449,2.21036 -6.36724,2.20403 -12.1726,6.00421 -16.70873,10.98471 -4.79579,5.26559 -8.17506,11.72491 -10.19014,18.53212 -1.72744,5.83553 -2.59148,11.93965 -2.48175,18.03061 z m 21.18826,-8.42351 a 17.122366,17.985388 0 0 1 17.12253,-17.9852 17.122366,17.985388 0 0 1 17.12253,17.9852 17.122366,17.985388 0 0 1 -17.12253,17.985213 17.122366,17.985388 0 0 1 -17.12253,-17.985213 z"
       style="fill:#1c398e;fill-opacity:1;stroke:none;stroke-width:1;stroke-dasharray:none;stroke-opacity:1"
       id="path29-0" /></g></svg>
